<svg width="1728" height="498" viewBox="0 0 1728 498" fill="none" xmlns="http://www.w3.org/2000/svg">
<path d="M1257.58 438.719C1210.07 436.193 1163.55 435.132 1120.44 436.283C1072.79 437.546 1020.5 440.546 967.038 444.561C1025.27 460.803 1076.64 477.834 1106.1 488.007C1137.54 476.706 1193.33 457.464 1257.58 438.719Z" fill="#77DB73"/>
<path d="M1506.18 387.672C1430.5 392.973 1337.48 415.44 1257.58 438.742C1487.88 451.013 1741.42 498 1741.42 498H1924.82C1924.82 498 1676.09 375.739 1506.18 387.672Z" fill="#77DB73"/>
<path d="M1106.1 488.007C1122.65 493.737 1132.29 497.278 1132.29 497.278L1080.68 497.323C1079.53 497.752 1078.92 498 1078.92 498H1741.42C1741.42 498 1487.89 451.013 1257.58 438.742C1193.33 457.464 1137.54 476.706 1106.1 488.007Z" fill="#38BC34"/>
<path d="M481.219 369.829C410.856 346.121 340.041 329.789 268.54 323.947C224.542 320.36 180.528 321.353 136.545 327.037C84.2682 333.782 32.4122 345.895 -19.2569 361.528C-101.422 386.386 -268.715 485.954 -266.984 497.752C-48.459 497.752 170.066 497.752 388.576 497.752C394.735 494.03 484.415 440.591 607.179 415.282C565.302 399.289 523.33 384.017 481.219 369.829Z" fill="#FFDB33"/>
<path d="M967.038 444.561C888.412 422.636 797.313 402.221 730.848 402.221C687.411 402.221 645.674 407.387 607.179 415.327C649.93 431.681 692.572 448.87 735.136 466.69C807.713 458.547 888.646 450.449 967.038 444.561Z" fill="#FFDB33"/>
<path d="M756.246 475.533C771.822 482.12 790.172 490.849 805.764 497.594L1080.68 497.323C1084.24 495.97 1093.08 492.676 1106.08 488.007C1076.63 477.834 1025.26 460.78 967.023 444.561C888.63 450.449 807.697 458.57 735.12 466.69C742.183 469.623 749.214 472.555 756.246 475.533Z" fill="#77BC17"/>
<path d="M1132.3 497.278C1132.3 497.278 1122.67 493.737 1106.11 488.007C1093.11 492.676 1084.27 495.992 1080.71 497.323L1132.3 497.278Z" fill="#38A20A"/>
<path d="M735.136 466.69C692.572 448.87 649.914 431.681 607.179 415.327C484.415 440.636 394.734 494.052 388.576 497.797C421.801 497.797 455.01 497.797 488.234 497.797C501.83 495.834 605.043 481.24 735.136 466.69Z" fill="#FFBC0A"/>
<path d="M735.136 466.69C605.043 481.24 501.83 495.834 488.219 497.774C530.985 497.774 573.736 497.774 616.503 497.774L805.764 497.594C790.157 490.849 771.822 482.142 756.246 475.533C749.215 472.555 742.183 469.623 735.136 466.69Z" fill="#E4B605"/>
</svg>
