<svg width="578" height="116" viewBox="0 0 578 116" fill="none" xmlns="http://www.w3.org/2000/svg">
<g clip-path="url(#clip0_1_1039)">
<path d="M150.678 19.148C133.527 19.148 120.596 29.4942 120.596 43.2374C120.596 56.9808 133.707 67.4042 150.498 67.4042C160.556 67.4042 168.458 63.6981 173.576 58.4479V57.3668L163.609 50.1092H162.441C159.388 52.9659 155.168 54.5873 150.678 54.5873C143.405 54.8962 137.209 50.032 136.849 43.7007C136.49 37.4467 142.147 32.1192 149.511 31.8105H150.678C155.168 31.8876 159.388 33.509 162.441 36.2886H163.609L173.576 28.9537V27.9499C167.829 22.3908 159.478 19.0709 150.678 19.148Z" fill="white"/>
<path d="M181.927 66.4776H223.413V54.8189H198.449V48.2562H217.217V37.3696H198.449V30.8067H223.413V19.1479H181.927V66.4776Z" fill="white"/>
<path d="M407.945 50.1092L401.39 37.5239L391.781 19.1479H376.606L353.528 66.4776H370.859L373.912 59.3744H394.475C395.822 61.6134 397.618 63.5437 399.773 65.2422C402.198 66.7865 405.251 67.5585 408.304 67.4041C411.088 67.4814 413.781 66.9409 416.206 65.86L408.843 51.7306C408.573 51.2673 408.304 50.7268 407.945 50.1092ZM378.222 49.9547L384.328 35.9025L390.075 49.9547H378.222Z" fill="white"/>
<path d="M283.935 50.1092L277.38 37.5239L267.862 19.1479H252.686L229.609 66.4776H246.939L249.993 59.3744H270.556C271.903 61.6134 273.699 63.5437 275.854 65.2422C278.278 66.7865 281.331 67.5585 284.384 67.4041C287.168 67.4814 289.862 66.9409 292.287 65.86L284.834 51.7306C284.474 51.2673 284.205 50.7268 283.935 50.1092ZM254.123 49.9547L260.229 35.8253L265.976 49.8776L254.123 49.9547Z" fill="white"/>
<path d="M336.287 47.9473C342.304 45.631 346.255 41.1527 346.255 34.976C346.255 25.3249 338.622 19.1479 324.344 19.1479H298.663V66.4776H315.185V49.8776H316.532C320.214 49.8776 323.626 56.3632 325.602 59.4515C329.283 65.0878 332.875 67.4041 340.328 67.4041C343.651 67.4041 347.063 66.4776 348.769 65.3195L348.859 65.1651L336.646 48.2562C336.467 48.1789 336.377 48.0245 336.287 47.9473ZM323.716 40.4579H315.185V30.8067H323.716C326.769 30.6523 329.283 32.6597 329.463 35.2849V35.7482C329.463 38.8364 326.769 40.3808 323.716 40.4579Z" fill="white"/>
<path d="M138.286 83.3093C138.286 85.2396 137.388 87.1699 135.772 88.4824C134.066 89.8722 131.821 90.6444 129.486 90.6444C124.637 90.6444 120.686 87.247 120.686 83.0777C120.686 78.9084 124.637 75.5112 129.486 75.5112C132.18 75.5112 134.784 76.515 136.49 78.2908V78.5224L133.976 80.2981H133.617C132.629 79.2173 131.102 78.5997 129.486 78.5997C126.792 78.5997 124.547 80.5298 124.637 82.8461V83.0006C124.547 85.394 126.792 87.3243 129.576 87.3243C130.743 87.3243 131.91 87.0154 132.898 86.3205C133.527 85.7802 133.976 85.1624 134.155 84.3904H129.666V81.8425H137.927L138.286 82.0741V83.3093Z" fill="white"/>
<path d="M140.98 83.155C140.98 78.8313 145.021 75.5885 150.229 75.5885C155.437 75.5885 159.478 78.8313 159.478 83.155C159.478 87.4787 155.437 90.7215 150.229 90.7215C145.021 90.7215 140.98 87.4787 140.98 83.155ZM155.347 83.155C155.347 80.6843 153.103 78.754 150.229 78.754C147.356 78.754 145.111 80.6843 145.111 83.155C145.111 85.6256 147.356 87.5559 150.229 87.5559C153.013 87.6332 155.258 85.7802 155.347 83.3866V83.155Z" fill="white"/>
<path d="M178.515 76.1288L170.882 90.4127H168.547L160.915 76.1288L161.094 75.8972H165.225L169.715 85.1624L174.384 75.8972H178.335L178.515 76.1288Z" fill="white"/>
<path d="M185.699 78.754V81.7652H192.074V84.4675H185.699V87.5559H193.96V90.4127H181.568V75.8972H193.96V78.754H185.699Z" fill="white"/>
<path d="M212.099 90.1039L211.919 90.3355H207.878L204.466 84.8536H202.131V90.3355H198.09V75.8972H205.364C209.674 75.8972 211.919 77.6731 211.919 80.5298C211.919 82.3828 210.572 84.0042 208.597 84.5447L212.099 90.1039ZM202.131 82.5373H205.454C206.621 82.6144 207.699 81.9195 207.788 80.9159V80.6843C207.788 79.6033 206.89 78.754 205.633 78.754H202.131V82.5373Z" fill="white"/>
<path d="M231.135 75.8972V90.4898H228.621L220.001 81.7652V90.4127H215.96V75.8972H218.474L227.005 84.5447V75.8972H231.135Z" fill="white"/>
<path d="M234.997 83.155C234.997 78.8313 239.038 75.5885 244.246 75.5885C249.454 75.5885 253.495 78.8313 253.495 83.155C253.495 87.4787 249.454 90.7215 244.246 90.7215C239.038 90.7215 234.997 87.4016 234.997 83.155ZM249.365 83.155C249.365 80.7614 247.12 78.754 244.246 78.754C241.463 78.754 239.128 80.6843 239.128 83.155C239.128 85.6256 241.373 87.5559 244.246 87.5559C247.03 87.6332 249.275 85.7802 249.365 83.3866V83.155Z" fill="white"/>
<path d="M280.343 83.0777C280.343 87.4787 276.931 90.3355 271.453 90.3355H264.09V75.8972H271.453C276.931 75.8972 280.343 78.754 280.343 83.0777ZM276.212 83.0777C276.212 80.2981 274.237 78.6767 271.274 78.6767H268.041V87.4787H271.274C274.237 87.4787 276.212 85.8573 276.212 83.0777Z" fill="white"/>
<path d="M283.218 83.155C283.218 78.8313 287.259 75.5885 292.467 75.5885C297.675 75.5885 301.716 78.8313 301.716 83.155C301.716 87.4787 297.675 90.7215 292.467 90.7215C287.259 90.7215 283.218 87.4787 283.218 83.155ZM297.585 83.155C297.585 80.7614 295.34 78.754 292.557 78.754C289.773 78.754 287.438 80.6843 287.438 83.0777C287.438 85.4713 289.683 87.4787 292.467 87.4787H292.557C295.34 87.5559 297.585 85.7029 297.675 83.3093C297.585 83.2322 297.585 83.155 297.585 83.155Z" fill="white"/>
<path d="M316.353 78.754V81.7652H322.728V84.4675H316.353V87.5559H324.704V90.4127H312.312V75.8972H324.614V78.754H316.353Z" fill="white"/>
<path d="M327.486 88.0192V87.7876L329.462 85.7802H329.731C330.898 86.9383 332.604 87.6332 334.4 87.7103C336.106 87.7103 337.094 87.0927 337.094 86.2434C337.094 85.008 335.478 84.8537 333.413 84.3131C331.078 83.6955 328.294 82.5374 328.294 79.8349C328.294 77.287 330.898 75.5112 334.67 75.5112C337.004 75.4339 339.339 76.2061 341.045 77.6731V77.9048L339.07 79.8349H338.8C337.723 78.9084 336.286 78.2908 334.759 78.2135C333.413 78.2135 332.515 78.6767 332.515 79.5262C332.515 80.4527 333.772 80.8387 335.209 81.3019C338.082 82.0741 341.405 82.8461 341.405 86.0889C341.405 88.9457 338.441 90.4898 334.759 90.4898C331.976 90.7215 329.372 89.795 327.486 88.0192Z" fill="white"/>
<path d="M352.72 90.4127H348.679V78.754H343.381V75.8972H358.108V78.754H352.72V90.4127Z" fill="white"/>
<path d="M375.528 90.1039L375.348 90.4128H371.217L369.96 87.8648H362.776L361.519 90.4128H357.568L357.389 90.1039L365.201 75.8201H367.715L375.528 90.1039ZM368.883 85.394L366.548 80.4527L364.123 85.394H368.883Z" fill="white"/>
<path d="M394.833 83.0777C394.833 87.4787 391.421 90.3355 385.943 90.3355H378.58V75.8972H385.943C391.421 75.8972 394.833 78.754 394.833 83.0777ZM390.703 83.0777C390.703 80.2981 388.727 78.6767 385.854 78.6767H382.621V87.4787H385.854C388.817 87.4787 390.792 85.8573 390.703 83.0777Z" fill="white"/>
<path d="M397.796 83.155C397.796 78.8313 401.837 75.5885 407.045 75.5885C412.254 75.5885 416.295 78.8313 416.295 83.155C416.295 87.4787 412.254 90.7215 407.045 90.7215C401.837 90.7215 397.796 87.4787 397.796 83.155ZM412.164 83.155C412.164 80.6843 409.919 78.754 407.045 78.754C404.172 78.754 401.927 80.6843 401.927 83.155C401.927 85.6256 404.172 87.5559 407.045 87.5559C409.829 87.6332 412.074 85.7802 412.164 83.3866V83.155Z" fill="white"/>
<path d="M377.862 16.2913L399.592 9.26518V8.26139L393.845 0.154358H392.678L373.462 10.269V11.2726L376.694 16.2913H377.862Z" fill="white"/>
<path d="M89.2575 46.8664C89.8859 42.3882 93.5677 39.2998 97.8779 36.9064L98.6861 36.5202L84.2287 20.8467L83.9593 20.7694C82.2534 20.4607 80.5472 20.2291 78.841 19.9974C73.6329 19.3796 69.8615 18.9936 66.6288 18.6847L63.9349 18.5304H63.8451L63.0369 18.4531H62.6777C60.7023 18.376 58.7267 18.2987 56.7511 18.2215H55.494C48.2205 18.0671 41.8451 18.2987 37.2655 18.5304C35.6492 18.6076 25.502 19.4569 23.5267 19.6885H23.2573C20.9224 19.9974 16.1633 20.615 14.4571 20.8467L0 36.5202L0.808165 36.9064C5.11838 39.2227 8.79995 42.3882 9.4286 46.8664C10.0572 51.3445 7.18362 56.4403 5.20825 60.4553C2.60402 65.86 0.179521 71.1875 0.179521 77.1326C0.179521 78.368 0.448909 79.6805 0.808165 80.916C2.24498 84.8537 5.74703 88.0192 9.51847 90.5671C14.0082 93.4239 18.7673 95.9719 23.7961 98.1336C28.9144 100.45 34.1225 102.689 39.0613 105.237C42.3839 106.936 46.6941 109.483 48.4899 112.495L49.2082 113.73L49.9267 112.495C51.7226 109.483 56.1227 107.013 59.3553 105.237C64.294 102.689 69.5022 100.45 74.6206 98.1336C79.6491 95.9719 84.4085 93.4239 88.8982 90.5671C92.6696 88.0192 96.1717 84.8537 97.6085 80.916C98.0574 79.6805 98.2369 78.4451 98.2369 77.1326C98.2369 71.1875 95.8124 65.86 93.2084 60.4553C91.4126 56.4403 88.6288 51.3445 89.2575 46.8664Z" fill="white"/>
<path fill-rule="evenodd" clip-rule="evenodd" d="M66.8083 3.01117L69.7716 3.39716V1.85303L66.8083 3.01117Z" fill="#EAD7B1"/>
<path fill-rule="evenodd" clip-rule="evenodd" d="M40.9471 1.00378V2.47065L42.6533 2.31629L40.9471 1.00378Z" fill="#EAD7B1"/>
<path fill-rule="evenodd" clip-rule="evenodd" d="M55.9429 2.31629L57.5593 2.39356V0.926514L55.9429 2.31629Z" fill="#EAD7B1"/>
<mask id="mask0_1_1039" style="mask-type:luminance" maskUnits="userSpaceOnUse" x="21" y="0" width="56" height="8">
<path d="M46.0655 0.231628C45.8859 0.231628 45.7062 0.385986 45.7062 0.540529V2.54792C43.9103 2.54792 42.1145 2.62519 40.3184 2.70228V0.694887C40.3184 0.617616 40.3184 0.540529 40.2288 0.463258C40.1389 0.385986 40.049 0.385986 39.9594 0.385986C37.9838 0.463258 35.9186 0.617616 33.8531 0.772159C33.6736 0.772159 33.5837 0.926517 33.5837 1.08087V3.08845C31.7879 3.24281 30.1715 3.39717 28.3757 3.6288V1.69868C28.3757 1.6214 28.3757 1.54413 28.2858 1.46705C28.1959 1.38978 28.1063 1.38978 28.0164 1.38978C26.6695 1.54413 25.3225 1.85303 23.9756 2.08466C23.1674 2.23902 22.4491 2.39356 21.641 2.47065C21.4612 2.47065 21.3716 2.62519 21.3716 2.77955V5.01857L22.3593 6.63998C22.4491 6.71725 22.5388 6.79452 22.6287 6.79452H22.8082C31.2491 5.63638 39.7797 5.01857 48.3104 4.94149C56.9309 4.94149 65.3716 5.79073 75.4288 7.18051H75.5187C75.6083 7.18051 75.6982 7.18051 75.6982 7.10324C75.7881 7.02615 75.7881 6.94888 75.7881 6.87161V6.63998L76.5962 5.32748L76.7757 5.01857V2.77955C76.7757 2.62519 76.6859 2.54792 76.5064 2.47065L75.6083 2.31629C73.9023 2.00739 72.1063 1.69868 70.4003 1.46705C70.3104 1.46705 70.2206 1.46705 70.1309 1.54413C70.041 1.54413 70.041 1.6214 69.9512 1.69868V3.55171C68.5146 3.39717 67.1676 3.24281 65.8207 3.16554L64.7431 3.08845V1.15815C64.7431 1.00379 64.6533 0.926517 64.4737 0.849245C62.4982 0.694887 60.4329 0.540529 58.3675 0.463258C58.2778 0.463258 58.1879 0.463258 58.0981 0.540529C58.0084 0.617616 58.0084 0.694887 58.0084 0.772159V2.70228C56.2124 2.62519 54.4165 2.62519 52.6206 2.54792V0.540529C52.6206 0.385986 52.4409 0.231628 52.2614 0.231628H46.0655Z" fill="white"/>
</mask>
<g mask="url(#mask0_1_1039)">
<path d="M76.9555 0.231628H21.3716V7.18051H76.9555V0.231628Z" fill="url(#paint0_linear_1_1039)"/>
</g>
<mask id="mask1_1_1039" style="mask-type:luminance" maskUnits="userSpaceOnUse" x="22" y="5" width="54" height="5">
<path d="M22.4491 7.10322L24.8736 9.1108C32.8654 8.02974 40.8572 7.41212 48.9388 7.33485C57.2002 7.48939 65.5513 8.02974 73.7226 9.1108L75.3389 7.79811L75.788 7.10322C67.3471 5.71344 58.7267 5.09583 50.1062 5.09583C40.7675 5.1731 31.6083 5.86798 22.4491 7.10322Z" fill="white"/>
</mask>
<g mask="url(#mask1_1_1039)">
<path d="M75.788 5.1731H22.4491V9.18807H75.788V5.1731Z" fill="url(#paint1_linear_1_1039)"/>
</g>
<mask id="mask2_1_1039" style="mask-type:luminance" maskUnits="userSpaceOnUse" x="21" y="7" width="57" height="14">
<path d="M26.849 9.03358L21.2817 20.3834C21.2817 20.3834 35.1104 18.9936 50.0164 18.6847C59.2655 18.5304 68.3348 19.148 77.4044 20.4607C77.3145 20.3834 71.5675 8.9563 71.5675 8.9563C71.5675 8.9563 61.69 7.87543 49.9267 7.6438H47.4124C40.5878 7.72107 33.7634 8.18433 26.849 9.03358Z" fill="white"/>
</mask>
<g mask="url(#mask2_1_1039)">
<path d="M77.4044 7.6438H21.3716V20.5378H77.4044V7.6438Z" fill="url(#paint2_linear_1_1039)"/>
</g>
<path fill-rule="evenodd" clip-rule="evenodd" d="M53.0695 18.5303L44.7185 18.6076C44.8084 17.2178 44.898 15.9051 45.2573 14.5926C45.6165 13.5889 46.3348 12.6623 47.3225 12.0447C48.2206 11.5042 49.2981 11.4271 50.3757 11.6587C51.3634 11.9674 52.2614 12.5852 52.7103 13.3572C53.3389 14.2837 53.6982 15.2875 53.7878 16.2913C53.8777 17.0633 53.8777 17.8355 53.7878 18.6076L53.0695 18.5303Z" fill="#EAD7B1"/>
<path fill-rule="evenodd" clip-rule="evenodd" d="M61.69 9.65116C60.343 9.72844 59.1756 10.4233 59.2655 11.3498C59.3554 12.2764 59.9838 16.6 59.9838 16.6L65.3716 16.9089L64.3839 10.9639C64.3839 10.9639 63.0369 9.57408 61.69 9.65116Z" fill="#EAD7B1"/>
<mask id="mask3_1_1039" style="mask-type:luminance" maskUnits="userSpaceOnUse" x="4" y="22" width="90" height="85">
<path d="M16.792 24.5527L6.55522 35.5166C10.4163 38.2962 13.2899 41.7706 13.9184 46.3259C14.6369 51.7307 11.8531 57.1352 9.5185 61.9994C7.18365 66.8637 4.75916 71.8824 4.75916 77.2099C4.75916 78.0591 4.93889 78.9084 5.20828 79.7578C7.54291 86.2434 19.3061 91.5709 25.8613 94.5821C31.0696 96.9755 36.4573 99.2147 41.4859 101.84C44.2696 103.152 46.8736 104.774 49.2083 106.55C51.4532 104.774 53.9676 103.152 56.6615 101.84C61.69 99.2147 67.0778 96.9755 72.286 94.5821C79.2901 91.4164 93.4778 85.1624 93.4778 77.2099C93.4778 71.8824 91.1432 66.9409 88.8084 62.0767C86.4737 57.2125 83.69 51.7307 84.3186 46.3259C84.9473 41.7706 87.8207 38.4505 91.682 35.671L81.4452 24.5527C71.1186 23.0086 60.7023 22.2365 50.1962 22.2365C39.0614 22.2365 27.8369 23.0086 16.792 24.5527Z" fill="white"/>
</mask>
<g mask="url(#mask3_1_1039)">
<path d="M93.388 22.1592H4.75916V106.55H93.388V22.1592Z" fill="url(#paint3_radial_1_1039)"/>
</g>
<path fill-rule="evenodd" clip-rule="evenodd" d="M18.6777 39.2997L17.7796 41.616H15.0858L17.3307 43.0831L16.4327 45.3994L18.6777 43.9323L20.8328 45.3994L20.0246 43.0831L22.2694 41.616H19.4858L18.6777 39.2997Z" fill="white"/>
<path fill-rule="evenodd" clip-rule="evenodd" d="M16.3428 55.0505L15.5346 57.3668H12.7511L14.9959 58.8339L14.1877 61.1502L16.3428 59.6831L18.5878 61.1502L17.6897 58.8339L19.9347 57.3668H17.151L16.3428 55.0505Z" fill="white"/>
<path fill-rule="evenodd" clip-rule="evenodd" d="M13.3795 69.1799L12.5714 71.4962H9.78784L12.0326 72.9633L11.1348 75.2796L13.3795 73.8125L15.6245 75.2796L14.7265 72.9633L16.9715 71.4962H14.1877L13.3795 69.1799Z" fill="white"/>
<path fill-rule="evenodd" clip-rule="evenodd" d="M48.9389 93.8099L48.1307 96.1262L45.3472 96.0489L47.5919 97.516L46.7838 99.8323L48.9389 98.3652L51.1838 99.8323L50.2858 97.516L52.5308 96.0489L49.8369 96.1262L48.9389 93.8099Z" fill="white"/>
<path fill-rule="evenodd" clip-rule="evenodd" d="M65.4614 88.0192L64.5634 90.3355H61.8695L64.1145 91.8025L63.2164 94.1188L65.4614 92.6518L67.6165 94.1188L66.8084 91.8025L68.9635 90.3355H66.2696L65.4614 88.0192Z" fill="white"/>
<path fill-rule="evenodd" clip-rule="evenodd" d="M32.3266 88.0192L33.1348 90.3355H35.9185L33.6735 91.8025L34.5716 94.1188L32.3266 92.6518L30.0816 94.1188L30.9797 91.8025L28.7347 90.3355H31.4286L32.3266 88.0192Z" fill="white"/>
<path fill-rule="evenodd" clip-rule="evenodd" d="M19.2164 80.5298L20.0246 82.846H22.8081L20.5634 84.2358L21.4612 86.5521L19.2164 85.1623L16.9715 86.5521L17.8695 84.2358L15.6245 82.846H18.4083L19.2164 80.5298Z" fill="white"/>
<mask id="mask4_1_1039" style="mask-type:luminance" maskUnits="userSpaceOnUse" x="22" y="30" width="54" height="31">
<path d="M22.3592 60.7642H75.9675C76.3268 46.0942 67.3471 30.9611 49.1186 30.9611C30.8898 30.9611 21.9103 46.0942 22.3592 60.7642Z" fill="white"/>
</mask>
<g mask="url(#mask4_1_1039)">
<path d="M76.3268 30.9611H21.9103V60.764H76.3268V30.9611Z" fill="url(#paint4_radial_1_1039)"/>
</g>
<path fill-rule="evenodd" clip-rule="evenodd" d="M22.3593 59.2971H37.445V59.8376H22.2694V59.7604L22.3593 59.2971Z" fill="#CAA52E"/>
<path fill-rule="evenodd" clip-rule="evenodd" d="M22.4491 56.7492L37.445 59.2971L37.2655 59.8377L22.4491 57.2897V56.7492Z" fill="#CAA52E"/>
<path fill-rule="evenodd" clip-rule="evenodd" d="M22.8082 54.124L37.5349 59.2971L37.2655 59.8377L22.7185 54.7418C22.7185 54.5102 22.7185 54.2786 22.8082 54.124Z" fill="#CAA52E"/>
<path fill-rule="evenodd" clip-rule="evenodd" d="M23.3469 51.2674L37.5349 59.2971L37.1756 59.7604L23.2573 51.885C23.2573 51.6534 23.3469 51.499 23.3469 51.2674Z" fill="#CAA52E"/>
<path fill-rule="evenodd" clip-rule="evenodd" d="M24.3348 48.1789L37.6245 59.3744L37.1756 59.7604L24.1551 48.7965L24.3348 48.1789Z" fill="#CAA52E"/>
<path fill-rule="evenodd" clip-rule="evenodd" d="M25.9512 44.6272L37.7144 59.4515L37.1756 59.7604L25.5919 45.245L25.9512 44.6272Z" fill="#CAA52E"/>
<path fill-rule="evenodd" clip-rule="evenodd" d="M28.4653 40.6895L37.7144 59.4515L37.0858 59.6831L28.0164 41.23C28.1959 41.0757 28.2858 40.9211 28.4653 40.6895Z" fill="#CAA52E"/>
<path fill-rule="evenodd" clip-rule="evenodd" d="M32.2368 36.7518L37.7144 59.5288L37.0858 59.606L31.698 37.138C31.8777 37.0607 32.0573 36.9063 32.2368 36.7518Z" fill="#CAA52E"/>
<path fill-rule="evenodd" clip-rule="evenodd" d="M37.6245 33.3546L37.7144 59.606H37.0857L36.9961 33.6635L37.6245 33.3546Z" fill="#CAA52E"/>
<path fill-rule="evenodd" clip-rule="evenodd" d="M44.1797 31.3472L37.7144 59.6831L37.0858 59.606L43.5511 31.5016L44.1797 31.3472Z" fill="#CAA52E"/>
<path fill-rule="evenodd" clip-rule="evenodd" d="M51.4532 31.0383L37.7144 59.7604L37.0858 59.5287L50.8246 31.0383H51.4532Z" fill="#CAA52E"/>
<path fill-rule="evenodd" clip-rule="evenodd" d="M58.8166 32.5825L37.6245 59.7604L37.0858 59.4515L58.1879 32.4281L58.8166 32.5825Z" fill="#CAA52E"/>
<path fill-rule="evenodd" clip-rule="evenodd" d="M65.192 36.1342L37.5349 59.8377L37.0858 59.4515L64.7431 35.7482C64.9226 35.9026 65.0125 35.9798 65.192 36.1342Z" fill="#CAA52E"/>
<path fill-rule="evenodd" clip-rule="evenodd" d="M70.1309 41.1528L37.5349 59.8377L37.1756 59.3744L69.8615 40.6124C69.9511 40.8441 70.041 40.9984 70.1309 41.1528Z" fill="#CAA52E"/>
<path fill-rule="evenodd" clip-rule="evenodd" d="M73.3635 47.0208L37.445 59.9147L37.1756 59.3744L73.1838 46.4802C73.2737 46.6348 73.3635 46.8664 73.3635 47.0208Z" fill="#CAA52E"/>
<path fill-rule="evenodd" clip-rule="evenodd" d="M75.3389 53.2748L37.445 59.9147L37.2655 59.3744L75.2493 52.7342L75.3389 53.2748Z" fill="#CAA52E"/>
<path fill-rule="evenodd" clip-rule="evenodd" d="M75.8777 59.606L37.2655 59.8376V59.2971L75.8777 59.0655V59.606Z" fill="#CAA52E"/>
<path fill-rule="evenodd" clip-rule="evenodd" d="M37.3551 51.2674C42.7429 51.2674 47.2328 54.9734 47.2328 59.606H27.4776C27.5675 54.9734 31.9673 51.2674 37.3551 51.2674Z" fill="#CAA52E"/>
<path fill-rule="evenodd" clip-rule="evenodd" d="M37.3551 51.9623C42.294 51.885 46.3348 55.2051 46.4247 59.4515H28.2858C28.4653 55.2051 32.5061 51.885 37.3551 51.9623Z" fill="#FACB13"/>
<mask id="mask5_1_1039" style="mask-type:luminance" maskUnits="userSpaceOnUse" x="22" y="59" width="50" height="30">
<path d="M22.2694 59.8376C22.2694 60.9185 22.3593 61.9994 22.4491 63.0805C28.6451 63.2348 36.6369 62.9259 36.8164 63.9297C36.8164 64.0841 37.1756 64.007 37.445 63.9297C37.7144 63.8524 37.9838 63.7753 37.8043 63.9297C34.9307 66.632 38.5226 71.3418 42.0246 73.7354C53.1594 81.1475 49.1186 85.394 40.049 87.0154C42.9227 87.9419 45.9756 88.4051 49.0287 88.3281C59.3554 88.3281 66.6289 83.5409 71.0287 76.8237C64.3839 74.5074 53.0696 73.3492 50.3757 68.2534C49.4776 66.5549 54.8654 63.3892 55.6736 61.9994C57.2899 59.3744 46.7838 59.9147 47.143 59.7604L22.4491 59.6831C22.6287 59.6831 22.5388 59.7604 22.2694 59.8376Z" fill="white"/>
</mask>
<g mask="url(#mask5_1_1039)">
<path d="M71.1186 59.3744H22.3593V88.3281H71.1186V59.3744Z" fill="url(#paint5_linear_1_1039)"/>
</g>
<mask id="mask6_1_1039" style="mask-type:luminance" maskUnits="userSpaceOnUse" x="21" y="59" width="29" height="30">
<path d="M22.2694 59.6831V59.5287C20.9224 65.86 24.0654 75.6655 30.7103 81.7652C36.1879 86.7837 43.9103 88.9457 47.0531 88.5597H47.6817C48.041 88.5597 48.3104 88.6368 48.4 88.4052C55.3145 77.2869 30.2614 64.779 48.041 59.8376C49.2981 59.5287 47.0531 59.3744 43.3715 59.3744C37.2655 59.3744 27.1184 59.6831 22.2694 59.6831Z" fill="white"/>
</mask>
<g mask="url(#mask6_1_1039)">
<path d="M55.4042 59.3744H20.9224V88.9457H55.4042V59.3744Z" fill="url(#paint6_linear_1_1039)"/>
</g>
<mask id="mask7_1_1039" style="mask-type:luminance" maskUnits="userSpaceOnUse" x="48" y="46" width="28" height="14">
<path d="M72.645 46.4031C66.3594 46.4802 66.8982 52.8115 62.4981 53.1975C61.4206 53.2747 58.9062 52.5799 57.1104 52.271C54.6859 51.9622 49.9267 56.9035 48.8492 59.5287H75.8777C75.8777 55.0505 74.9799 50.5725 73.0941 46.3259C73.0043 46.4031 72.8248 46.4031 72.645 46.4031Z" fill="white"/>
</mask>
<g mask="url(#mask7_1_1039)">
<path d="M75.8779 46.4031H48.8492V59.606H75.8779V46.4031Z" fill="url(#paint7_linear_1_1039)"/>
</g>
<path fill-rule="evenodd" clip-rule="evenodd" d="M33.4042 76.1288C29.8123 69.8748 31.698 66.0917 36.6368 63.6981C34.3919 67.0953 37.7144 70.0294 42.3839 73.1949C39.2409 73.6582 36.1879 74.5847 33.494 76.0517L33.4042 76.1288Z" fill="white"/>
<mask id="mask8_1_1039" style="mask-type:luminance" maskUnits="userSpaceOnUse" x="46" y="59" width="30" height="21">
<path d="M50.7349 72.5C55.1348 76.4377 63.2164 76.9782 69.143 79.6032C73.6329 74.353 75.8777 67.2498 75.9676 60.2236V59.992L49.0287 59.7604C46.5144 63.0032 45.1674 67.4814 50.7349 72.5Z" fill="white"/>
</mask>
<g mask="url(#mask8_1_1039)">
<path d="M75.8777 59.6831H45.1674V79.6032H75.8777V59.6831Z" fill="url(#paint8_linear_1_1039)"/>
</g>
<mask id="mask9_1_1039" style="mask-type:luminance" maskUnits="userSpaceOnUse" x="61" y="53" width="15" height="7">
<path d="M69.9511 53.4291C67.7064 53.6607 66.09 56.8265 61.6899 59.2198H75.9675C75.9675 57.5214 75.788 55.8227 75.5186 54.2013C74.1717 54.0469 72.0166 53.5837 70.4899 53.4291H69.9511Z" fill="white"/>
</mask>
<g mask="url(#mask9_1_1039)">
<path d="M75.9675 53.4291H61.6899V59.2198H75.9675V53.4291Z" fill="url(#paint9_linear_1_1039)"/>
</g>
<path d="M39.0613 44.1639H35.4694V45.7853H39.0613V44.1639Z" fill="#FACB13"/>
<path fill-rule="evenodd" clip-rule="evenodd" d="M50.2858 40.6895C52.6206 40.5351 54.9553 40.7668 57.1104 41.3844C58.8166 41.9249 59.445 41.9249 61.0613 43.1603L58.7267 44.4728C56.3022 42.1565 53.3389 41.7705 50.2858 40.9984C48.9388 40.6124 48.9388 40.6895 50.2858 40.6895Z" fill="white"/>
<path fill-rule="evenodd" clip-rule="evenodd" d="M59.9838 43.0831C61.8695 43.2374 64.1145 41.9249 65.0125 41.7706C65.3715 41.6933 65.9103 42.2338 65.6409 42.3882C65.192 42.6198 64.6532 42.8514 64.1145 43.0058C64.6532 42.7742 65.192 42.5425 65.8207 42.3882C66.2696 42.4655 66.5389 43.0831 66.3594 43.2374C66.3594 43.2374 64.8328 43.5463 64.3838 43.778C65.0125 43.5463 65.6409 43.392 66.3594 43.2374C66.6288 43.2374 66.8982 43.9323 66.539 44.0869C65.4614 44.7045 64.1145 44.7045 63.0369 45.0905C63.4858 46.4802 64.5634 48.1789 64.4737 49.646C64.3838 51.9623 62.947 54.124 62.4981 56.286C62.3186 57.1352 62.4083 57.3668 62.2287 56.3632C61.69 53.5837 61.4206 48.5649 59.8941 46.7119C59.3553 46.3259 58.7267 46.0943 58.0084 45.8626C57.3797 45.7083 56.841 45.631 56.2123 45.631C55.7634 45.7083 54.7757 45.9399 54.3266 46.017C54.5063 45.3221 55.0451 43.4691 56.5716 43.6236L59.9838 43.0831Z" fill="white"/>
<path fill-rule="evenodd" clip-rule="evenodd" d="M60.7023 67.6358L60.6124 68.4079L61.7798 69.1028V68.2534L60.7023 67.6358ZM60.2532 80.7614V81.5335L60.343 81.6108H61.5105L60.2532 80.7614ZM60.2532 79.2945V80.0665L62.2288 81.3792V80.607L60.2532 79.2945ZM60.343 77.8275V78.5996L62.3186 79.8349V79.0629L60.343 77.8275ZM60.343 76.3604L60.2532 77.1326L62.0492 78.2907V77.4415L60.343 76.3604ZM60.4329 74.8936V75.6655L62.1389 76.7466V75.9744L60.4329 74.8936ZM60.5226 73.4265V74.1987L62.1389 75.2023V74.353L60.5226 73.4265ZM60.5226 71.9595V72.7316L61.9594 73.6581V72.8089L60.5226 71.9595ZM60.6124 70.4926L60.5226 71.2646L61.8695 72.114V71.2646L60.6124 70.4926ZM60.7023 69.0255L60.6124 69.7977L61.8695 70.5697L61.7798 69.7204L60.7023 69.0255Z" fill="#AB9276"/>
<mask id="mask10_1_1039" style="mask-type:luminance" maskUnits="userSpaceOnUse" x="33" y="49" width="9" height="11">
<path d="M33.4042 49.0282V59.2971H41.396L41.3063 49.0282H33.4042Z" fill="white"/>
</mask>
<g mask="url(#mask10_1_1039)">
<path d="M41.3063 49.0282H33.4042V59.2971H41.3063V49.0282Z" fill="url(#paint10_linear_1_1039)"/>
</g>
<mask id="mask11_1_1039" style="mask-type:luminance" maskUnits="userSpaceOnUse" x="35" y="41" width="5" height="8">
<path d="M37.3551 41.3844C36.9062 41.3844 36.6368 41.9249 36.2776 42.3109C36.0082 42.5425 35.8287 42.7742 35.5593 43.0058V47.1751L35.7388 47.4068L35.6491 48.8738H39.0613L38.9714 47.3297L39.69 47.1751L39.6001 45.7083L39.5102 43.3147C39.0613 42.9287 38.7021 42.5426 38.343 42.1566C37.8939 41.7706 38.0736 41.3073 37.3551 41.3844Z" fill="white"/>
</mask>
<g mask="url(#mask11_1_1039)">
<path d="M39.5102 41.3073H35.4694V48.7967H39.5102V41.3073Z" fill="url(#paint11_linear_1_1039)"/>
</g>
<path d="M38.8818 44.2412H35.6492V45.5537H38.8818V44.2412Z" fill="#FACB13"/>
<path fill-rule="evenodd" clip-rule="evenodd" d="M36.3674 9.5741C37.7144 9.65118 38.8818 10.3461 38.7919 11.2726C38.7021 12.1991 38.0736 16.523 38.0736 16.523L32.6859 16.8317L33.6735 10.8866C33.6735 10.9639 35.0205 9.5741 36.3674 9.5741Z" fill="#EAD7B1"/>
<path d="M35.0205 11.5042C34.841 13.1256 34.5716 14.1294 34.4818 15.7508C35.3798 15.6735 36.0981 15.6735 36.8164 15.5965C36.9961 14.0521 37.2655 12.894 37.445 11.3499C36.9961 10.5006 35.7388 10.5777 35.0205 11.5042Z" fill="#6E4E32"/>
<path d="M63.6655 15.7508C63.4858 14.2067 63.3063 13.0485 63.1268 11.5042C62.4083 10.5777 61.1512 10.4233 60.7023 11.3499C60.8818 12.894 61.0613 14.0521 61.3307 15.5965C62.0492 15.6736 62.6776 15.7508 63.6655 15.7508Z" fill="#6E4E32"/>
<path d="M52.6206 18.376V17.7582C52.4409 15.7508 52.2614 12.508 49.2981 12.508C46.3348 12.508 46.245 15.8281 46.0654 17.8355V18.2987L52.6206 18.376Z" fill="#6E4E32"/>
<path d="M49.2981 11.7358C53.1594 11.7358 53.2491 15.6735 53.5185 18.1444V18.376H54.237V18.2215C54.1471 17.5266 54.0572 16.8317 53.9676 16.1368H55.7634L56.0328 18.2215L56.1227 18.376H56.841V18.2215L56.5716 16.1368L59.7144 16.2141L59.8043 17.0633L61.2411 17.1406C62.0492 17.2178 62.8574 17.2178 63.5757 17.2949L65.7308 17.4495L65.6409 16.523C66.9879 16.6 68.3348 16.6773 69.6818 16.8317L70.3104 19.0709L70.4003 19.4569H71.1186L71.0287 18.9163L70.4899 16.9862L75.4288 17.5266L76.5064 19.6112L76.5962 19.8429L76.6859 19.9974L77.5839 20.0745V19.9201L72.1961 9.34245L74.0819 9.57408L76.0574 8.10703L77.494 5.40475C77.6738 4.40096 77.6738 3.32008 77.5839 2.31629C76.5064 2.16194 70.3104 1.08088 69.7716 1.08088L65.192 2.85682V0.617617L57.4696 0.0772716L54.7758 2.23902H53.0696V0H45.3472V2.23902L43.7308 2.31629L41.0369 0.154358L33.2247 0.694888V2.85682L28.8246 1.15815C28.2858 1.08088 22.1797 2.16194 21.1022 2.31629C21.1022 2.93391 20.9225 4.94149 21.1918 5.40475C22.9879 8.57029 21.641 7.41214 24.8736 9.41953L26.4001 9.26518L21.1022 19.9201V20.1518L21.9104 20.0745L22 19.9201L23.2573 17.4495L28.1959 16.9089L27.4776 19.2252V19.7658H28.1063L28.3757 18.6847L28.9145 16.9089C30.1715 16.8317 31.339 16.6773 32.596 16.6L32.5062 17.4495L34.5716 17.2949C35.3798 17.2178 36.1879 17.2178 36.9062 17.1406L38.2532 16.9862L38.3431 16.2141C39.5103 16.1368 40.7675 16.1368 41.9348 16.0597L41.7552 17.7582L41.6654 18.5304H42.3839V18.2215L42.6533 16.0597L44.4491 15.9824L44.539 15.3648L38.6124 15.6735L38.9715 13.5118L45.5267 13.2801C44.898 14.747 44.539 16.2913 44.4491 17.9127L44.2696 18.5304H44.9879V18.2215C45.3472 15.7508 45.5267 11.7358 49.2981 11.7358ZM59.5349 10.1144C56.2123 9.96006 52.9797 9.88279 49.6574 9.88279V7.72104C53.4288 7.72104 57.2002 7.8754 60.9717 8.10703L61.1512 9.26518L60.8818 9.34245C60.4329 9.41953 59.8941 9.72843 59.5349 10.1144ZM58.9062 11.5815C58.9961 12.0447 58.9961 12.4307 59.086 12.8169L56.0328 12.7396L55.8533 10.5006C56.9309 10.5006 58.0084 10.5777 59.086 10.655L58.9961 10.8093L58.8166 11.1955L58.9062 11.5815ZM63.5757 16.523C62.7675 16.4457 61.9594 16.4457 61.2411 16.3684L60.5226 16.2913L60.4329 15.6735C60.2532 14.2838 59.9838 12.8169 59.8043 11.4271V11.1955L59.8941 11.0409C60.1635 10.5777 60.6124 10.1917 61.2411 10.0373C62.3186 9.88279 63.3962 10.269 63.8451 11.1182L63.935 11.2726V11.4271C64.1145 12.8169 64.3839 14.2838 64.4737 15.6735L64.5634 16.6L63.5757 16.523ZM64.8328 11.4271L64.7431 11.1182C65.8207 11.1955 66.8982 11.2726 67.8859 11.4271L68.5146 13.5889C67.3471 13.5118 66.1797 13.4345 65.0125 13.2801C65.0125 12.5853 64.9226 12.0447 64.8328 11.4271ZM75.0695 16.7546H74.9799C71.8369 16.3684 68.6941 16.1368 65.5513 15.9052V15.6735C65.4614 15.0559 65.3716 14.4383 65.2819 13.8205C68.1553 14.0521 71.1186 14.2838 73.992 14.6699L75.0695 16.7546ZM73.6329 14.0521H73.5431L69.4124 13.5889L68.784 11.4271L72.5554 11.8131L73.6329 14.0521ZM72.1961 11.1955H72.1063L64.3839 10.5006C63.7552 9.88279 62.9471 9.41953 61.9594 9.34245L61.69 8.1843C64.8328 8.41593 67.9758 8.72464 71.0287 9.11082L72.1961 11.1955ZM69.6818 1.93031V3.32008C68.784 3.24281 67.7961 3.08845 66.8982 2.93391L69.6818 1.93031ZM57.5593 1.00379V2.31629H55.943L57.5593 1.00379ZM41.0369 1.00379L42.6533 2.31629L41.0369 2.39357V1.00379ZM28.8246 2.00739L31.698 3.08845L28.8246 3.39717V2.00739ZM22.898 6.71725C21.641 4.63259 21.9104 5.40475 21.9104 2.93391C23.9756 2.62519 25.9512 2.31629 28.0164 2.00739V4.16933C30.0817 3.9377 32.0572 3.70607 34.1225 3.55171V1.3125C36.1879 1.15815 38.1633 1.00379 40.2288 0.926518V3.16554C42.2041 3.08845 44.1797 3.01118 46.245 2.93391V0.694888H52.3513V2.93391C54.4165 2.93391 56.3921 3.01118 58.4573 3.08845V0.849246C60.5226 0.926518 62.4982 1.08088 64.5634 1.23542V3.47444C66.539 3.6288 68.6042 3.86043 70.6697 4.09206V2.00739C72.645 2.31629 74.7105 2.62519 76.7757 2.93391C76.7757 5.48183 77.0451 4.55532 75.6982 6.79452C66.6288 5.48183 57.5593 4.86422 48.4899 4.86422C39.9594 4.94149 31.4286 5.55911 22.898 6.71725ZM25.143 8.64756C24.3348 8.1843 23.8857 7.8754 23.1674 7.33487C40.4083 4.94149 58.0981 4.94149 75.4288 7.48941L73.7226 8.80192L64.8328 7.72104C51.5431 6.56289 38.2532 6.87161 25.143 8.64756ZM27.2981 9.1879C30.4409 8.80192 33.6736 8.49302 36.8164 8.26139L36.547 9.26518C35.3798 9.26518 34.3919 9.72843 33.6736 10.5006L26.2206 11.1955L27.2981 9.1879ZM25.9512 11.8131L29.7226 11.4271L29.094 13.6661L24.7838 14.1294L25.9512 11.8131ZM32.6859 15.6735V15.9824C29.6328 16.2141 26.5796 16.4457 23.5267 16.8317L24.6042 14.6699C27.3878 14.361 30.1715 14.0521 32.9553 13.8978C32.7755 14.5154 32.6859 15.1332 32.6859 15.6735ZM33.2247 11.4271C33.1348 12.0447 33.0449 12.6623 32.9553 13.2801L29.8123 13.5118L30.5308 11.2726C31.4286 11.1955 32.3266 11.1182 33.2247 11.0409V11.4271ZM38.3431 11.5042C38.1633 12.9712 37.8939 14.361 37.7144 15.7508L37.6245 16.3684L36.8164 16.4457C36.0082 16.523 35.2 16.523 34.4817 16.6L33.4042 16.6773L33.4941 15.7508C33.6736 14.361 33.943 12.894 34.0328 11.5042V11.3498L34.1225 11.1955C34.6613 10.3461 35.7388 9.96006 36.8164 10.1144C37.3551 10.269 37.8939 10.5777 38.1633 11.0409L38.2532 11.1955L38.3431 11.5042ZM38.5226 10.1144C38.1633 9.72843 37.7144 9.49681 37.2655 9.34245L37.5349 8.10703C41.3063 7.8754 45.1674 7.72104 48.9389 7.72104V9.80571C45.5267 9.80571 42.0246 9.88279 38.5226 10.1144ZM42.3839 12.8169C41.2165 12.8169 40.1389 12.894 38.9715 12.9712C39.0613 12.508 39.1512 12.0447 39.1512 11.6587L39.2409 11.2726L39.0613 10.8093L38.9715 10.7322C40.1389 10.655 41.396 10.655 42.5634 10.5777L42.3839 12.8169ZM43.1022 12.8169L43.2817 10.5777C47.2329 10.5006 51.1838 10.4233 55.1348 10.5777L55.4042 12.7396L52.7103 12.6623C52.89 12.8169 52.9797 13.0485 53.0696 13.2801L59.1756 13.5118L59.5349 15.6735L53.8777 15.4419V15.6735C53.4288 13.3572 52.4409 11.1182 49.2082 11.1182C47.8613 11.0409 46.5144 11.6587 45.7961 12.6623L43.1022 12.8169Z" fill="#6E4E32"/>
<path d="M38.4327 52.6571H36.547V54.2013H38.4327V52.6571Z" fill="#405965"/>
<path d="M41.0369 76.9782C41.3063 76.8237 41.396 76.515 41.2165 76.2834C41.2165 76.2061 41.1266 76.2061 41.0369 76.1288H39.5103V75.3568C39.5103 75.2023 39.3307 75.0479 39.1512 75.0479H38.3431C38.1633 75.0479 37.9838 75.2023 37.9838 75.3568V76.1288H34.4817C36.9062 74.9707 39.6001 74.1214 42.294 73.7354L43.7308 73.5038L42.5634 72.7316C40.4982 71.3419 36.7267 68.8712 36.4573 66.4004C36.3675 65.6284 36.6369 64.8562 37.0858 64.1614L38.3431 62.3083L36.0981 63.3121C29.9021 66.246 29.8123 71.1875 32.6859 76.1288H31.7879V75.6656H30.6204V76.1288H29.2735C28.9145 76.3604 28.9145 76.6693 29.2735 76.9782C33.1348 77.5959 37.0858 77.5959 41.0369 76.9782ZM36.4573 63.8525C34.2124 67.2498 37.445 70.0294 42.2041 73.1949C39.0613 73.6582 36.0981 74.5847 33.4941 76.0517C30.0817 70.1837 31.5185 66.1687 36.4573 63.8525Z" fill="#405965"/>
<path d="M56.6614 44.3185C56.4817 44.3185 56.3022 44.3956 56.3022 44.5501C56.3022 44.7045 56.3921 44.8588 56.5716 44.8588C56.7511 44.8588 56.9308 44.7817 56.9308 44.6272C56.9308 44.4728 56.841 44.3956 56.6614 44.3185Z" fill="#405965"/>
<path d="M89.2574 46.8664C89.8859 42.3882 93.5677 39.2998 97.8779 36.9064L98.686 36.5202L84.2287 20.8467L83.9593 20.7694C82.2533 20.4607 80.5471 20.2291 78.841 19.9974C73.6329 19.3796 69.8615 18.9936 66.6288 18.6847L63.9349 18.5304H63.8451L63.0369 18.4531H62.6776C60.7023 18.376 58.7267 18.2987 56.7511 18.2215H55.4041C48.1307 18.0671 41.7552 18.2987 37.1756 18.5304C35.5593 18.6076 25.4124 19.4569 23.5266 19.6885H23.2573C20.9224 19.9974 16.1633 20.615 14.4571 20.8467L0.0898438 36.5202L0.898009 36.9064C5.20823 39.2227 8.8898 42.3882 9.51844 46.8664C10.1469 51.3445 7.1836 56.4403 5.20823 60.4553C2.60399 65.86 0.179496 71.1875 0.179496 77.1326C0.179496 78.368 0.359232 79.6805 0.808141 80.916C2.24495 84.8537 5.747 88.0192 9.51844 90.5671C14.0082 93.4239 18.7673 95.9719 23.796 98.1336C28.9144 100.45 34.1224 102.689 39.0613 105.237C42.3838 106.936 46.6941 109.483 48.4899 112.418L49.2082 113.653L49.9267 112.418C51.7226 109.483 56.1227 106.936 59.3553 105.237C64.294 102.689 69.5022 100.45 74.6206 98.1336C79.6491 95.9719 84.4085 93.4239 88.8982 90.5671C92.6696 88.0192 96.1717 84.8537 97.6085 80.916C98.0574 79.6805 98.2369 78.4451 98.2369 77.1326C98.2369 71.1875 95.8124 65.86 93.2084 60.4553C91.4126 56.4403 88.6288 51.3445 89.2574 46.8664ZM49.2981 112.109C42.3838 100.759 0.987662 94.1188 0.987662 77.1326C0.987662 60.1464 21.9103 47.6384 1.25705 36.2886L14.8163 21.4643C39.1512 17.9128 62.1389 17.9128 83.7798 21.4643L97.3391 36.2886C76.6858 47.6384 97.5186 60.1464 97.5186 77.1326C97.5186 94.1188 56.2123 100.836 49.2981 112.109Z" fill="#405965"/>
<path fill-rule="evenodd" clip-rule="evenodd" d="M28.8246 3.39716L31.8777 3.08844L28.8246 1.9303V3.39716Z" fill="#EAD7B1"/>
<path d="M89.5268 61.7677C87.2819 57.0581 84.4981 51.6533 85.2166 46.4802C85.7554 42.2338 88.4493 38.9137 92.2207 36.2114L92.8492 35.7482L81.8941 24.0122L81.6247 23.9351C60.1635 20.615 38.343 21.001 16.8816 23.9351L16.5225 24.0122L5.74701 35.7482L6.28578 36.2114C10.0572 38.9137 12.7511 42.2338 13.2899 46.4802C14.0082 51.7306 11.2244 57.0581 8.8898 61.7677C6.55517 66.7092 4.13068 71.7278 4.13068 77.1326C4.13068 78.0591 4.3102 78.9856 4.57959 79.8348C7.00408 86.5521 18.6777 91.8796 25.5919 95.0453C30.8001 97.4387 36.098 99.6006 41.0369 102.226C43.7308 103.538 46.1553 105.16 48.4899 106.935L49.1186 107.399L49.6573 106.935C51.9021 105.16 54.4165 103.538 57.1103 102.226C62.1389 99.6006 67.437 97.3616 72.5554 95.0453C80.0084 91.6479 94.0166 85.3939 94.0166 77.1326C94.286 71.7278 91.8615 66.7092 89.5268 61.7677ZM72.3756 94.4275C67.1676 96.8211 61.8695 99.0601 56.841 101.685C54.1471 103.075 51.6327 104.619 49.2981 106.472C46.9635 104.619 44.4491 103.075 41.7552 101.685C36.7267 99.0601 31.4286 96.8211 26.2205 94.4275C19.6653 91.4163 7.90212 86.0888 5.56727 79.6032C5.29788 78.754 5.11836 77.9047 5.11836 77.0553C5.11836 71.7278 7.45299 66.7865 9.78784 61.9223C12.1225 57.0581 14.9062 51.6533 14.1877 46.2486C13.5593 41.7705 10.6857 38.2961 6.82456 35.5165L12.5714 29.2625L26.9388 41.4616C17.8695 54.5102 20.0246 75.5112 33.6735 84.622C38.1633 87.6332 43.6409 89.1773 49.2981 89.1C59.1756 89.1 66.4491 84.9307 71.0287 78.8312L83.0615 89.1C79.6491 91.0303 76.0574 92.8061 72.3756 94.4275ZM51.7226 31.1927H51.992C53.8777 31.3472 55.8533 31.7332 57.6491 32.2737L58.1879 32.4281H58.2778L58.9062 32.6597L58.9961 32.737L59.3553 32.8913C61.1512 33.5862 62.7675 34.4355 64.294 35.5165L65.2819 36.2114L65.6409 36.5201C67.1676 37.7556 68.5145 39.1453 69.6817 40.6124L69.7716 40.6895C69.8615 40.844 70.041 40.9984 70.1309 41.1527L69.9511 40.9211L70.1309 41.0756V41.1527C71.2084 42.6198 72.1062 44.0868 72.8247 45.7082H72.645C70.2205 45.7082 67.9758 46.8664 66.8083 48.6421C66.8083 48.7194 66.4491 49.1827 66.2696 49.4914C65.8206 50.1863 65.2819 50.8812 64.7431 51.5761C64.8327 51.1901 64.9226 50.8041 65.0125 50.4179C65.0125 50.2636 65.0125 50.1092 65.1021 49.8776C65.192 49.723 65.1021 49.2598 65.1021 49.2598C65.1021 47.87 64.294 46.6348 63.8451 45.3993C64.9226 45.245 65.9103 44.9361 66.8982 44.5501C67.437 44.1639 67.5266 43.469 67.0777 43.0058C67.0777 42.8514 66.9879 42.6971 66.9879 42.6198C66.9879 42.5425 66.8083 42.3881 66.8083 42.3109C66.7185 42.1565 66.5389 42.0022 66.3594 41.9249C66.09 41.4616 65.5513 41.1527 64.9226 41.23C64.3838 41.3844 63.9349 41.5389 63.4858 41.6933C62.947 41.9249 62.4981 42.2338 61.9593 42.3882C61.7798 42.4654 61.6001 42.4654 61.4206 42.5425C60.7919 42.1565 60.0736 41.7705 59.3553 41.4616C59.1756 41.3844 58.9062 41.3073 58.4573 41.1527L57.6491 40.9211C56.2123 40.4578 54.6858 40.2262 53.1594 40.1491C52.6206 40.1491 52.1715 40.0719 51.4532 40.0719H50.645C50.1062 40.0719 49.0287 39.9946 48.9388 40.6124C48.8492 41.23 49.8369 41.3844 50.3756 41.5389H50.4655L51.992 41.8476C53.4288 42.1565 54.8654 42.5425 56.2123 43.1603C55.4042 43.3147 54.7757 43.7779 54.5063 44.3955L54.3266 44.7817C54.1471 45.1677 54.0572 45.5537 53.9676 45.9399L53.7878 46.7118L54.8654 46.4802C55.3145 46.4031 55.8533 46.3258 56.3022 46.2486C56.7511 46.2486 57.2899 46.3258 57.739 46.4802C58.098 46.5575 58.4573 46.7118 58.8165 46.8664H58.9062C59.1756 46.9435 59.445 47.098 59.6247 47.2524V47.3296C60.1635 48.4878 60.5225 49.6459 60.7023 50.8812V50.9584C60.7023 51.1128 60.7919 51.2673 60.7919 51.499C60.7919 51.7306 60.8818 51.9622 60.8818 52.1166V52.4255C60.5225 52.3482 60.0736 52.2709 59.8042 52.1939L59.5348 52.1166H59.445L57.2899 51.6533C56.2123 51.6533 55.1348 52.0393 54.3266 52.7342C54.0572 52.8887 53.7878 53.1204 53.5184 53.2747C52.89 53.738 52.2614 54.2785 51.7226 54.8189C51.6327 54.8961 51.5431 54.9734 51.4532 55.1278C51.0043 55.591 50.645 56.0543 50.1961 56.5175L49.6573 57.2124C49.4776 57.5213 49.2981 57.753 49.1186 57.9846C48.8492 58.3706 48.6694 58.6795 48.4899 59.0655H42.0246V48.7194H39.5102L39.4206 47.484H40.1389V45.1677H39.5102V44.4728H40.049V43.7007C40.049 43.0058 39.5102 42.3882 38.7021 42.1565V41.9249C38.7021 41.4616 38.343 41.0756 37.8042 40.9211C37.7144 40.9211 37.5349 40.844 37.445 40.844H37.1756C36.6368 40.9211 36.1879 41.3844 36.1879 41.8476V42.0792C35.4694 42.3109 34.9306 42.9287 34.9306 43.6236V44.3955H35.4694V45.0904H34.9306V47.4067H35.7388L35.6491 48.6421H33.1348V58.9882H22.5387V57.9846C22.5387 57.4441 22.6286 57.2897 22.6286 56.5948V56.0543C22.7185 55.1278 22.8081 54.2785 23.0775 53.4291C23.0775 53.2747 23.1674 53.0431 23.1674 52.8887C23.3469 52.0393 23.5266 51.4217 23.6163 50.8041C23.7062 50.4952 23.796 50.2636 23.8857 49.9547V49.8776C23.9756 49.5687 24.0654 49.2598 24.2449 48.7965C24.4245 48.3332 24.6042 47.87 24.7837 47.4067C24.8736 47.098 25.0531 46.7891 25.2326 46.4031V46.3258C25.502 45.631 25.8613 44.9361 26.2205 44.3185L26.3102 44.1639C26.849 43.1603 27.4776 42.1565 28.1959 41.23C28.7347 40.4578 29.3633 39.763 29.992 39.0681L30.351 38.6821L30.4409 38.6048C31.0695 37.8328 31.8777 37.1379 32.6859 36.5201L32.7755 36.4431C33.8531 35.5165 35.1104 34.7444 36.3674 34.0495H36.4573C36.9062 33.7406 37.445 33.509 37.9838 33.2773C38.0736 33.2002 38.2532 33.123 38.343 33.123C39.69 32.5054 41.1266 32.0421 42.6532 31.6559H42.7429C43.3715 31.5016 44.0002 31.3472 44.6286 31.2699C46.2449 31.0383 47.8613 30.884 49.4776 30.884H50.8245L51.1838 30.961C51.1838 31.1156 51.4532 31.1156 51.7226 31.1927ZM22.5387 59.6831H48.041C47.2328 59.9147 46.5143 60.1463 45.7062 60.4552L45.5266 60.5325L44.898 60.8412C44.7185 60.9185 44.4491 61.0729 44.2696 61.1501C42.5634 61.9223 41.4858 63.5437 41.4858 65.1651C41.4858 65.9371 41.6653 66.632 41.8451 67.4041L41.9347 67.6358C42.0246 67.8674 42.1145 68.1763 42.294 68.485C42.7429 69.4115 43.192 70.2609 43.7308 71.1875L44.898 73.0405C46.6042 75.8201 48.4899 78.6767 49.2981 81.6879C49.8369 83.4638 49.747 85.3939 49.0287 87.1699C48.9388 87.4015 48.8492 87.5559 48.7593 87.7875C48.6694 88.0191 48.5798 88.0964 48.4899 88.2508C47.8613 88.2508 47.143 88.1735 46.5143 88.1735C42.9226 87.8648 39.5102 86.861 36.4573 85.2396C26.5796 79.9121 22.2694 69.1028 22.5387 59.6831ZM35.8287 50.2635V49.337H36.9062V50.2635H37.9838V49.337H39.0613V50.2635H40.1389V49.337H41.2164V51.3444H33.6735V49.337H34.7511V50.2635H35.8287ZM37.445 42.6198C38.4327 42.6198 39.2408 43.1603 39.2408 43.7779V43.9323H35.5593V43.7779C35.6491 43.083 36.4573 42.6198 37.445 42.6198ZM36.8163 42.0022C36.8163 41.7705 37.0857 41.5389 37.3551 41.5389C37.6245 41.5389 37.8939 41.7705 37.8939 42.0022V42.0792H37.3551C37.1756 42.0792 36.9961 42.0793 36.8163 42.1565V42.0022ZM38.7021 44.4728V45.1677H37.8042V44.4728H38.7021ZM37.0857 45.245H36.1879V44.5501H37.0857V45.245ZM39.4206 46.9435H35.5593V45.7853H39.5102L39.4206 46.9435ZM38.7021 48.7194H36.1879L36.2776 47.484H38.6124L38.7021 48.7194ZM41.2164 54.7418H33.6735V51.9622H41.3063L41.2164 54.7418ZM41.2164 55.3594V58.9882H38.4327V56.9808C38.5225 56.5175 38.1633 56.0543 37.6245 55.977C37.0857 55.8999 36.547 56.2086 36.4573 56.6719V58.9882H33.6735V55.3594H41.2164ZM49.2082 88.2508C51.5431 84.0814 49.747 79.8348 47.4124 75.8201C46.0654 73.5038 44.539 71.2646 43.4614 69.1799C42.7429 67.7901 42.0246 66.0143 42.294 64.4702C42.4735 63.3121 43.2817 62.3083 44.3592 61.6907C45.2572 61.2274 46.2449 60.7641 47.2328 60.4552L47.3225 60.378L47.7716 60.2236C45.0777 64.6246 46.0654 68.8712 50.2858 72.7316C52.7103 74.8935 56.1227 76.0517 59.7144 77.0553L59.5348 81.9195H62.7675V81.4562C62.7675 80.2981 62.6776 79.0629 62.6776 77.9047C64.7431 78.4451 66.8083 79.14 68.6941 79.9121C64.2043 85.3169 56.9308 88.4051 49.2082 88.2508ZM62.588 68.9483L63.6655 69.8748L64.0246 69.5661L62.8574 68.485C63.7552 68.8712 64.4737 69.4115 65.1021 70.1064V70.4153L64.8327 72.5L63.5757 71.4191L63.3961 71.3418L63.3063 71.1875C63.2164 70.4153 62.947 69.6432 62.588 68.9483ZM63.0369 71.5735L62.4981 72.5772C62.4981 71.6507 62.4083 70.7242 62.4083 69.7977C62.6776 70.338 62.7675 70.8786 62.947 71.4962L63.0369 71.5735ZM63.6655 68.3306L64.7431 68.6395L64.9226 68.1763L63.5757 67.7901C64.2043 67.7901 64.8327 67.9447 65.4614 68.099L65.6409 68.2534L66.9879 70.2609L65.8206 70.0293C65.192 69.3344 64.4737 68.7939 63.6655 68.3306ZM65.8206 67.6358H65.6409C64.9226 67.4041 64.2043 67.3269 63.4858 67.3269L65.0125 67.0952L64.9226 66.632L63.1268 66.8636L64.9226 66.0916H65.1021L67.7064 66.4776L65.8206 67.6358ZM65.4614 63.3121L64.8327 63.5437L65.5513 63.0804L65.4614 63.3121ZM65.2819 63.9297L64.7431 65.7055V65.7827H64.6532C63.8451 66.0916 63.0369 66.4003 62.2287 66.8636L64.0246 65.1651L63.5757 64.8562L62.0492 66.4003C62.3186 65.86 62.588 65.3195 62.947 64.7789L63.0369 64.7018H63.1268L65.2819 63.9297ZM60.2531 80.1437V79.4489L62.2287 80.6843V81.4562L60.2531 80.1437ZM61.5104 81.6879H60.2531L60.1635 81.6108V80.8386L61.5104 81.6879ZM61.8695 69.952V70.7242L60.6124 69.952V69.1799L61.8695 69.952ZM60.7023 68.4079V67.713L61.7798 68.3306V69.1028L60.7023 68.4079ZM61.9593 71.4191V72.1911L60.6124 71.2646V70.4926L61.9593 71.4191ZM61.9593 72.9632V73.7354L60.5225 72.8089V72.114L61.9593 72.9632ZM62.0492 74.5074V75.2795L60.5225 74.2757V73.5808L62.0492 74.5074ZM62.0492 76.0517V76.8237L60.343 75.7428V75.0479L62.0492 76.0517ZM62.1389 77.5958V78.368L60.343 77.2098V76.5149L62.1389 77.5958ZM62.2287 79.14V79.9121L60.343 78.6767V77.9818L62.2287 79.14ZM62.4083 64.6246C62.0492 65.0878 61.7798 65.5511 61.6001 66.0916V64.2386H61.0613V66.3232C60.7919 65.6284 60.4329 65.0106 59.9838 64.4702V64.3157L61.241 62.231L62.4981 64.3157V64.3929L62.4083 64.6246ZM60.343 66.4003L58.8165 65.0878L58.4573 65.3967L60.5225 67.1725C59.7144 66.632 58.8165 66.1687 57.8286 65.86L57.739 65.7827L57.2002 63.9297L59.2655 64.7018L59.445 64.7789L59.5348 64.8562C59.8042 65.3195 60.0736 65.86 60.343 66.4003ZM56.9308 63.3121L56.841 63.0804L57.5593 63.5437L56.9308 63.3121ZM57.2002 66.3232H57.5593L59.1756 66.9409L57.6491 66.632L57.4696 67.0952L58.9961 67.3269C58.2778 67.3269 57.5593 67.4814 56.841 67.6358H56.6614L54.7757 66.5549L57.2002 66.3232ZM56.841 68.3306L57.0205 68.1763C57.6491 68.0217 58.2778 67.9447 58.9062 67.8674L57.4696 68.2534L57.6491 68.7166L58.8165 68.4079C58.0084 68.8712 57.3797 69.4115 56.7511 70.0293L56.6614 70.1064V70.1837L55.494 70.4153L56.841 68.3306ZM57.3797 70.2609C57.9185 69.6431 58.6368 69.1028 59.3553 68.7166L58.3674 69.5661L58.7267 69.8748L59.9838 68.7939C59.445 69.5661 59.0859 70.4153 58.9062 71.2646V71.3418L58.8165 71.4191L57.6491 72.5772L57.3797 70.4926V70.2609ZM59.5348 71.2646C59.6247 70.8013 59.8042 70.338 60.0736 69.8748L59.9838 72.4227L59.5348 71.4962V71.2646ZM62.6776 77.3642C62.588 76.1288 62.588 74.8935 62.4981 73.6581L63.0369 72.6543V74.0441H63.5757V72.7316L64.1144 73.967L64.6532 73.8125L64.1144 72.5L65.192 73.5038L65.6409 73.1949L65.4614 73.0405L65.6409 71.6507L66.09 73.0405L66.6288 72.886L66.1797 71.5735L67.0777 72.6543L67.5266 72.4227L66.4491 71.1102L67.8859 71.8824L68.1553 71.4962L66.8083 70.8013L67.2572 70.8786L67.437 71.1102L67.796 70.9558L68.4247 71.0329L68.5145 70.5697H68.3348L68.6941 70.2609L67.3471 68.9483L69.0533 69.7977L69.3227 69.4115L67.5266 68.485L69.5921 68.8712L69.6817 68.4079L67.9758 68.099L69.6817 68.0217V67.5585L67.796 67.6358L69.6817 67.0952L69.5022 66.632L67.7064 67.1725L68.6042 66.632L69.3227 66.246L68.9634 65.9371L68.4247 66.246L67.0777 66.0916L68.8736 65.9371L68.7839 65.4738L66.7185 65.6284L68.5145 64.9335L68.3348 64.4702L66.5389 65.1651L68.0654 64.007L67.7064 63.6208L66.1797 64.7018L67.2572 63.2348L66.8083 63.0032L66.7185 62.8488L66.1797 63.0032L66.2696 62.7715H66.0002L66.3594 62.5399L66.0002 62.1539L64.2043 63.2348L65.4614 61.7677L65.0125 61.459L63.5757 63.0032L64.3838 61.1501L63.8451 60.9958L63.2164 62.5399L63.3961 60.9185H62.8574L62.6776 62.6943L62.2287 60.9958L61.69 61.0729L62.1389 62.8488L61.4206 61.7677L61.69 61.3818L61.1512 61.1501L61.0613 61.2274L60.5225 61.459L60.7023 61.7677L60.1635 62.7715L60.6124 60.9958L60.0736 60.9185L59.6247 62.6943L59.445 60.9185L58.9062 60.9958L59.0859 62.6172L58.3674 60.9958L57.8286 61.1501L58.6368 63.0032L57.2002 61.459L56.7511 61.7677L58.0084 63.2348L56.2123 62.1539L55.8533 62.5399L56.3022 62.8488L56.0328 62.9259L56.1227 63.0804L55.6735 62.7715L55.5839 63.0032L55.1348 63.2348L56.2123 64.7018L54.7757 63.6208L54.4165 64.007L55.9429 65.1651L54.0572 64.4702L53.7878 64.8562L55.5839 65.5511L53.6083 65.3195L53.5184 65.7827L55.3145 65.9371L54.0572 66.0916L53.5184 65.86L53.249 66.246L53.7878 66.5549V66.7092H53.9676L54.9552 67.2498L53.1594 66.7092L52.9796 67.1725L54.8654 67.713L52.89 67.6358V68.099L54.596 68.1763L52.89 68.485L52.9796 68.9483L55.0451 68.5623L53.249 69.4888L53.5184 69.8748L55.1348 68.9483L53.7878 70.1837L54.1471 70.4926H53.9676L54.0572 70.9558L54.6859 70.8786L55.0451 71.0329L55.2246 70.8013L55.6735 70.7242L54.3266 71.4191L54.596 71.8051L56.0328 71.0329L55.0451 72.2683L55.494 72.5L56.392 71.4191L56.0328 72.8089L56.5716 72.9632L57.0205 71.5735L57.2002 72.9632L57.0205 73.1176L57.4696 73.4265L58.5472 72.4227L57.9185 73.7354L58.4573 73.8897L58.9961 72.6543V73.967H59.5348V72.5772L59.9838 73.4265L59.8941 76.5149C56.4817 75.5112 53.249 74.4303 50.9144 72.3456C45.7062 67.6358 46.6042 63.3892 48.7593 60.1463L49.0287 59.6831H50.2858L75.788 60.2236C75.788 67.3269 73.4532 74.5074 68.9634 79.7578C66.8982 78.9083 64.7431 78.1363 62.4981 77.5958M67.0777 69.4888L68.1553 70.4926L67.6165 70.4153L67.0777 69.4888ZM65.6409 64.4702L65.9103 63.6208L66.3594 63.4664L65.6409 64.4702ZM56.7511 64.4702L56.0328 63.4664L56.5716 63.6208L56.7511 64.4702ZM55.4042 69.4888L54.7757 70.4153L54.2369 70.4926L55.4042 69.4888ZM75.9675 59.2198H61.69C66.4491 56.6719 67.8859 53.1975 70.4899 53.4291C71.9267 53.5836 74.0818 54.0469 75.4288 54.2012C75.788 55.8227 75.8777 57.5213 75.9675 59.2198ZM75.0695 53.5064C74.3512 53.4291 73.7226 53.2747 73.0043 53.1975C72.286 53.1204 71.3879 52.9658 70.5798 52.8887C70.3104 52.8115 69.9511 52.8115 69.6817 52.8887C68.2451 53.1204 66.9879 54.3556 66.0002 55.205C64.6532 56.5175 63.0369 57.753 61.3307 58.6795L60.2531 59.2198L49.2082 59.1427C50.645 56.4403 54.9552 52.0393 57.2002 52.3482C58.2778 52.5026 59.8042 52.8887 60.9717 53.1204C61.0613 54.2012 61.241 55.3594 61.4206 56.4403C61.5104 56.8264 61.5104 57.5984 62.2287 57.5984C63.0369 57.5984 62.947 56.8264 63.0369 56.3632C63.3962 55.1278 63.8451 53.9696 64.294 52.8115C67.0777 51.2673 67.1676 46.4802 72.645 46.4031H73.1838C74.1717 48.7194 74.89 51.1128 75.3389 53.5064H75.0695ZM56.6614 43.8552L59.8941 43.3147C61.7798 43.469 64.0246 42.0793 65.0125 41.9249C65.2819 41.9249 65.5513 42.0793 65.6409 42.2338L63.7552 43.0058L64.0246 43.469L66.09 42.6198C66.3594 42.7741 66.4491 43.0058 66.4491 43.2374L64.2043 43.7007L64.294 44.1639L66.6288 43.7007C66.7185 43.8552 66.6288 44.0868 66.5389 44.1639C65.4614 44.7044 64.1144 44.7817 63.0369 45.1677C63.4858 46.5575 64.5634 48.2562 64.4737 49.6459V50.1092L63.3063 47.9473L62.7675 48.1789L64.3838 50.9584C64.294 51.499 64.1144 51.9622 63.9349 52.5026L62.6776 48.8738L62.1389 49.0281L63.6655 53.2747C63.2164 54.2785 62.8574 55.2821 62.588 56.2859C62.4082 57.1352 62.588 57.2897 62.4083 56.3632C61.7798 53.5836 61.7798 48.6421 60.2531 46.7891C59.6247 46.4802 58.9062 46.1715 58.1879 45.9399C57.6491 45.7853 57.0205 45.7082 56.392 45.631C55.9429 45.7082 55.2246 45.8626 54.7757 45.9399C54.7757 45.245 55.2246 43.7007 56.6614 43.8552ZM50.5551 40.9984C49.2981 40.6895 49.2981 40.6895 50.645 40.6895C52.9797 40.6124 55.2246 40.844 57.3797 41.5389C58.3674 41.8476 59.2655 42.2338 60.1635 42.6971H59.9838L57.2899 43.1603C55.2246 41.9249 52.89 41.5389 50.5551 40.9984ZM83.9593 88.5597L71.5675 78.0591C80.7267 64.9335 78.392 43.7007 64.5634 34.59C60.1635 31.6559 54.7757 30.1118 49.2082 30.1891C39.3307 30.1891 32.0572 34.4355 27.4776 40.6124L13.3795 28.6447L17.0613 24.707C38.4327 21.7731 60.1635 21.3871 81.4452 24.707L91.6819 35.6709C87.8206 38.4505 84.9472 41.9249 84.3186 46.4031C83.6003 51.8077 86.3838 57.2124 88.7187 62.0766C91.0533 66.9409 93.3879 71.8824 93.3879 77.2098C93.3879 81.5335 89.0777 85.4712 83.9593 88.5597Z" fill="#405965"/>
<path d="M439.912 19.1479H438.386V90.6442H439.912V19.1479Z" fill="white"/>
<path d="M465.842 42.1074H468.202V31.1287H471.947V29.3011H462.097V31.1287H465.842V42.1074Z" fill="white"/>
<path d="M474.1 42.1074H476.46V36.8194H478.525L481.654 42.1074H484.27L480.655 36.3619C482.164 35.8312 483.078 34.5504 483.078 33.0683C483.078 30.9275 481.292 29.3011 478.099 29.3011H474.1V42.1074ZM476.46 35.0811V31.0737H478.057C479.782 31.0737 480.634 31.8788 480.634 33.0683C480.634 34.3675 479.547 35.0811 478.057 35.0811H476.46Z" fill="white"/>
<path d="M494.188 38.3747L495.72 42.1074H498.104L492.677 29.3011H490.23L484.803 42.1074H487.186L488.74 38.3747H494.188ZM493.528 36.6752H489.4L491.464 31.4969L493.528 36.6752Z" fill="white"/>
<path d="M499.892 42.1074H504.637C507.298 42.1074 509.466 40.6272 509.466 38.3393C509.466 36.9662 508.573 35.9233 507.107 35.3933C508.233 34.8635 508.977 33.8568 508.977 32.6301C508.977 30.6534 507.17 29.3011 504.275 29.3011H499.892V42.1074ZM502.252 34.6625V31.0737H504.339C505.702 31.0737 506.553 31.7512 506.553 32.8315C506.553 33.9302 505.638 34.6625 504.36 34.6625H502.252ZM502.252 40.3531V36.3254H504.403C505.872 36.3254 507.022 36.9662 507.022 38.3393C507.022 39.6757 505.893 40.3531 504.403 40.3531H502.252Z" fill="white"/>
<path d="M519.81 38.3747L521.342 42.1074H523.726L518.299 29.3011H515.852L510.425 42.1074H512.808L514.362 38.3747H519.81ZM519.15 36.6752H515.022L517.086 31.4969L519.15 36.6752Z" fill="white"/>
<path d="M525.515 42.1074H533.088V40.28H527.874V29.3011H525.515V42.1074Z" fill="white"/>
<path d="M535.133 42.1074H537.492V36.545H544.56V42.1074H546.92V29.3011H544.56V34.699H537.492V29.3011H535.133V42.1074Z" fill="white"/>
<path d="M549.199 35.7043C549.199 39.493 552.41 42.3454 556.859 42.3454C561.329 42.3454 564.54 39.4746 564.54 35.7043C564.54 31.9706 561.329 29.0634 556.88 29.0634C552.431 29.0634 549.199 31.9522 549.199 35.7043ZM551.665 35.7043C551.665 32.9955 553.879 30.964 556.88 30.964C559.86 30.964 562.095 32.9955 562.095 35.7043C562.095 38.4497 559.86 40.4447 556.88 40.4447C553.879 40.4447 551.665 38.4497 551.665 35.7043Z" fill="white"/>
<path d="M462.396 56.9812C462.396 60.7697 465.607 63.6223 470.056 63.6223C471.801 63.6223 473.398 63.1837 474.632 62.3978L476.185 63.6588L477.694 62.3231L476.163 61.0788C477.141 59.9809 477.737 58.5537 477.737 56.9801C477.737 53.2471 474.526 50.3401 470.077 50.3401C465.628 50.3401 462.396 53.229 462.396 56.9801V56.9812ZM464.862 56.9801C464.862 54.2719 467.075 52.2407 470.077 52.2407C473.057 52.2407 475.292 54.2719 475.292 56.9801C475.292 58.023 474.909 58.9378 474.313 59.6516L472.823 58.4256L471.333 59.7613L472.844 61.0056C472.078 61.4652 471.12 61.7214 470.077 61.7214C467.075 61.7214 464.862 59.7265 464.862 56.9812V56.9801Z" fill="white"/>
<path d="M485.738 63.6223C489.356 63.6223 491.483 61.5751 491.483 58.6658V50.578H489.144V58.6474C489.144 60.5322 487.931 61.7398 485.738 61.7398C483.523 61.7398 482.332 60.5505 482.332 58.6658V50.578H479.972V58.684C479.972 61.6483 482.013 63.6223 485.738 63.6223Z" fill="white"/>
<path d="M494.528 63.3844H502.102V61.5569H496.888V57.785H501.229V55.9759H496.888V52.4055H501.889V50.578H494.528V63.3844Z" fill="white"/>
<path d="M510.043 63.3844H513.552C518.47 63.3844 521.489 61.1542 521.489 56.9812C521.489 52.9729 518.534 50.578 513.552 50.578H510.043V63.3844ZM512.403 61.6117V52.369H513.786C516.98 52.369 519.045 54.0345 519.045 56.9812C519.045 60.0378 516.98 61.6117 513.786 61.6117H512.403Z" fill="white"/>
<path d="M531.833 59.6516L533.366 63.3844H535.749L530.322 50.578H527.875L522.448 63.3844H524.832L526.385 59.6516H531.833ZM531.174 57.9522H527.045L529.11 52.7737L531.174 57.9522ZM527.96 49.8255H529.918L531.897 47.2111H529.429L527.96 49.8255Z" fill="white"/>
<path d="M462.906 84.6611H467.139V80.1415H467.906L470.418 84.6611H475.076L471.673 79.2815C472.949 78.5861 473.629 77.2688 473.629 75.8964C473.629 73.3907 471.864 71.8548 468.162 71.8548H462.906V84.6611ZM467.139 77.1772V74.9082H467.842C468.801 74.9082 469.312 75.3109 469.312 76.0245C469.312 76.6832 468.801 77.1772 467.842 77.1772H467.139Z" fill="white"/>
<path d="M476.357 84.6611H484.866V81.4796H480.589V79.7756H484.057V76.6122H480.589V75.0364H484.696V71.8548H476.357V84.6611Z" fill="white"/>
<path d="M485.975 81.7905C486.358 82.6865 487.91 84.899 491.421 84.899C494.869 84.899 496.761 83.162 496.761 80.7108C496.761 76.8485 490.654 76.9217 490.654 75.4939C490.654 75.1461 490.952 74.9082 491.464 74.9082C492.487 74.9082 492.848 75.549 493.146 76.0797L496.655 74.7255C496.251 73.7196 494.996 71.6168 491.57 71.6168C488.485 71.6168 486.422 73.1346 486.422 75.5671C486.422 79.649 492.487 79.6857 492.487 80.9854C492.487 81.3149 492.21 81.5528 491.549 81.5528C490.782 81.5528 489.931 80.967 489.505 80.2898L485.975 81.7905Z" fill="white"/>
<path d="M505.063 84.899C509.255 84.899 511.552 82.7414 511.552 79.6497V71.8548H507.319V79.6681C507.319 80.8574 506.446 81.6077 505.063 81.6077C503.679 81.6077 502.806 80.8574 502.806 79.6681V71.8548H498.573V79.6497C498.573 82.7414 500.87 84.899 505.063 84.899Z" fill="white"/>
<path d="M514.023 84.6611H522.533V81.4796H518.256V71.8548H514.023V84.6611Z" fill="white"/>
<path d="M524.28 84.6611H528.512V75.0364H531.598V71.8548H521.236V75.0364H524.28V84.6611Z" fill="white"/>
<path d="M540.368 82.2092L541.261 84.6611H545.517L540.368 71.8548H535.899L530.749 84.6611H535.005L535.899 82.2092H540.368ZM539.367 79.3021H536.899L538.133 75.6242L539.367 79.3021Z" fill="white"/>
<path d="M546.837 84.6611H551.687C556.519 84.6611 559.646 82.211 559.646 78.2579C559.646 74.25 556.477 71.8548 551.687 71.8548H546.837V84.6611ZM551.069 81.5893V74.9265H551.602C553.774 74.9265 555.243 76.0065 555.243 78.2579C555.243 80.4729 553.774 81.5893 551.602 81.5893H551.069Z" fill="white"/>
<path d="M568.692 84.899C573.609 84.899 576.735 81.9916 576.735 78.2396C576.735 74.5426 573.609 71.6168 568.692 71.6168C563.776 71.6168 560.649 74.5426 560.649 78.2396C560.649 81.9916 563.776 84.899 568.692 84.899ZM568.692 74.9449C570.864 74.9449 572.311 76.3726 572.311 78.2396C572.311 80.1615 570.864 81.571 568.692 81.571C566.521 81.571 565.073 80.1615 565.073 78.2396C565.073 76.3726 566.521 74.9449 568.692 74.9449Z" fill="white"/>
</g>
<defs>
<linearGradient id="paint0_linear_1_1039" x1="19.1267" y1="3.7216" x2="79.125" y2="3.7216" gradientUnits="userSpaceOnUse">
<stop stop-color="#D8B56D"/>
<stop offset="0.51" stop-color="#EDD9B1"/>
<stop offset="0.53" stop-color="#ECD8AF"/>
<stop offset="1" stop-color="#D8B56B"/>
</linearGradient>
<linearGradient id="paint1_linear_1_1039" x1="22.4482" y1="7.15355" x2="76.5649" y2="7.15355" gradientUnits="userSpaceOnUse">
<stop stop-color="#B79644"/>
<stop offset="0.51" stop-color="#C7A865"/>
<stop offset="1" stop-color="#B89642"/>
</linearGradient>
<linearGradient id="paint2_linear_1_1039" x1="21.032" y1="14.0489" x2="77.9969" y2="14.0489" gradientUnits="userSpaceOnUse">
<stop stop-color="#DBB872"/>
<stop offset="0.51" stop-color="#E0C28B"/>
<stop offset="1" stop-color="#DBB872"/>
</linearGradient>
<radialGradient id="paint3_radial_1_1039" cx="0" cy="0" r="1" gradientUnits="userSpaceOnUse" gradientTransform="translate(49.5434 65.5145) scale(50.4672 42.7888)">
<stop stop-color="#01A668"/>
<stop offset="0.39" stop-color="#029D5F"/>
<stop offset="1" stop-color="#038647"/>
</radialGradient>
<radialGradient id="paint4_radial_1_1039" cx="0" cy="0" r="1" gradientUnits="userSpaceOnUse" gradientTransform="translate(39.5023 57.0926) scale(36.4312 30.8769)">
<stop stop-color="#E0F0E0"/>
<stop offset="0.14" stop-color="#D7EDE1"/>
<stop offset="0.37" stop-color="#BEE5E3"/>
<stop offset="0.65" stop-color="#96D7E7"/>
<stop offset="0.99" stop-color="#5EC5ED"/>
<stop offset="1" stop-color="#5CC4ED"/>
</radialGradient>
<linearGradient id="paint5_linear_1_1039" x1="19.4457" y1="73.9011" x2="71.7618" y2="73.9011" gradientUnits="userSpaceOnUse">
<stop stop-color="white"/>
<stop offset="0.18" stop-color="#FFFBF6"/>
<stop offset="0.48" stop-color="#FEEFDD"/>
<stop offset="0.86" stop-color="#FCDBB5"/>
<stop offset="1" stop-color="#FBD3A4"/>
</linearGradient>
<linearGradient id="paint6_linear_1_1039" x1="21.0337" y1="74.1523" x2="56.3624" y2="74.1523" gradientUnits="userSpaceOnUse">
<stop stop-color="#00AEB4"/>
<stop offset="0.18" stop-color="#09B0B6"/>
<stop offset="0.47" stop-color="#22B5BA"/>
<stop offset="0.84" stop-color="#4ABEC2"/>
<stop offset="1" stop-color="#5EC2C6"/>
</linearGradient>
<linearGradient id="paint7_linear_1_1039" x1="62.3902" y1="45.5643" x2="62.3902" y2="59.6257" gradientUnits="userSpaceOnUse">
<stop stop-color="#19A576"/>
<stop offset="0.33" stop-color="#149D6D"/>
<stop offset="0.87" stop-color="#068654"/>
<stop offset="1" stop-color="#027F4D"/>
</linearGradient>
<linearGradient id="paint8_linear_1_1039" x1="43.7623" y1="69.6358" x2="75.7723" y2="69.6358" gradientUnits="userSpaceOnUse">
<stop stop-color="#E9B68B"/>
<stop offset="0.3" stop-color="#E4AF82"/>
<stop offset="0.8" stop-color="#D69C69"/>
<stop offset="1" stop-color="#CF935D"/>
</linearGradient>
<linearGradient id="paint9_linear_1_1039" x1="68.7749" y1="53.5829" x2="68.7749" y2="59.8964" gradientUnits="userSpaceOnUse">
<stop stop-color="#19A576"/>
<stop offset="0.33" stop-color="#149D6D"/>
<stop offset="0.87" stop-color="#068654"/>
<stop offset="1" stop-color="#027F4D"/>
</linearGradient>
<linearGradient id="paint10_linear_1_1039" x1="34.3386" y1="54.1318" x2="42.2766" y2="54.1318" gradientUnits="userSpaceOnUse">
<stop stop-color="#DBDAD9"/>
<stop offset="0.35" stop-color="#E2E2E2"/>
<stop offset="0.92" stop-color="#F7F9FB"/>
<stop offset="1" stop-color="#FAFDFF"/>
</linearGradient>
<linearGradient id="paint11_linear_1_1039" x1="35.6405" y1="45.0983" x2="39.6768" y2="45.0983" gradientUnits="userSpaceOnUse">
<stop stop-color="#DBDAD9"/>
<stop offset="0.35" stop-color="#E2E2E2"/>
<stop offset="0.92" stop-color="#F7F9FB"/>
<stop offset="1" stop-color="#FAFDFF"/>
</linearGradient>
<clipPath id="clip0_1_1039">
<rect width="578" height="116" fill="white"/>
</clipPath>
</defs>
</svg>
